<svg width="19" height="19" viewBox="0 0 19 19" fill="none" xmlns="http://www.w3.org/2000/svg">
<path d="M0 0.625C0 0.45924 0.065848 0.300268 0.183058 0.183058C0.300269 0.065848 0.45924 0 0.625 0H2.5C2.63941 3.85143e-05 2.77481 0.0466884 2.88466 0.132531C2.99452 0.218374 3.07251 0.33848 3.10625 0.47375L3.6125 2.5H18.125C18.2174 2.50006 18.3087 2.52061 18.3922 2.56019C18.4758 2.59977 18.5495 2.65738 18.6081 2.72887C18.6666 2.80037 18.7086 2.88397 18.731 2.97365C18.7534 3.06333 18.7556 3.15686 18.7375 3.2475L17.4875 9.4975C17.4602 9.63379 17.3882 9.75708 17.2829 9.84786C17.1776 9.93864 17.0451 9.99174 16.9062 9.99875L5.16 10.5887L5.51875 12.5H16.25C16.4158 12.5 16.5747 12.5658 16.6919 12.6831C16.8092 12.8003 16.875 12.9592 16.875 13.125C16.875 13.2908 16.8092 13.4497 16.6919 13.5669C16.5747 13.6842 16.4158 13.75 16.25 13.75H5C4.85429 13.7499 4.71321 13.6988 4.60114 13.6057C4.48907 13.5126 4.41306 13.3832 4.38625 13.24L2.5125 3.25875L2.0125 1.25H0.625C0.45924 1.25 0.300269 1.18415 0.183058 1.06694C0.065848 0.949732 0 0.79076 0 0.625ZM3.8775 3.75L4.9275 9.34875L16.3575 8.775L17.3625 3.75H3.8775ZM6.25 13.75C5.58696 13.75 4.95107 14.0134 4.48223 14.4822C4.01339 14.9511 3.75 15.587 3.75 16.25C3.75 16.913 4.01339 17.5489 4.48223 18.0178C4.95107 18.4866 5.58696 18.75 6.25 18.75C6.91304 18.75 7.54893 18.4866 8.01777 18.0178C8.48661 17.5489 8.75 16.913 8.75 16.25C8.75 15.587 8.48661 14.9511 8.01777 14.4822C7.54893 14.0134 6.91304 13.75 6.25 13.75ZM15 13.75C14.337 13.75 13.7011 14.0134 13.2322 14.4822C12.7634 14.9511 12.5 15.587 12.5 16.25C12.5 16.913 12.7634 17.5489 13.2322 18.0178C13.7011 18.4866 14.337 18.75 15 18.75C15.663 18.75 16.2989 18.4866 16.7678 18.0178C17.2366 17.5489 17.5 16.913 17.5 16.25C17.5 15.587 17.2366 14.9511 16.7678 14.4822C16.2989 14.0134 15.663 13.75 15 13.75ZM6.25 15C6.58152 15 6.89946 15.1317 7.13388 15.3661C7.3683 15.6005 7.5 15.9185 7.5 16.25C7.5 16.5815 7.3683 16.8995 7.13388 17.1339C6.89946 17.3683 6.58152 17.5 6.25 17.5C5.91848 17.5 5.60054 17.3683 5.36612 17.1339C5.1317 16.8995 5 16.5815 5 16.25C5 15.9185 5.1317 15.6005 5.36612 15.3661C5.60054 15.1317 5.91848 15 6.25 15ZM15 15C15.3315 15 15.6495 15.1317 15.8839 15.3661C16.1183 15.6005 16.25 15.9185 16.25 16.25C16.25 16.5815 16.1183 16.8995 15.8839 17.1339C15.6495 17.3683 15.3315 17.5 15 17.5C14.6685 17.5 14.3505 17.3683 14.1161 17.1339C13.8817 16.8995 13.75 16.5815 13.75 16.25C13.75 15.9185 13.8817 15.6005 14.1161 15.3661C14.3505 15.1317 14.6685 15 15 15Z" fill="#5E4632"/>
</svg>
