<svg width="18" height="26" viewBox="0 0 18 26" fill="none" xmlns="http://www.w3.org/2000/svg">
<path d="M9 0C10.2715 0 11.5143 0.377029 12.5715 1.08341C13.6287 1.78979 14.4527 2.7938 14.9392 3.96846C15.4258 5.14313 15.5531 6.4357 15.305 7.68272C15.057 8.92974 14.4447 10.0752 13.5457 10.9743C12.6466 11.8733 11.5012 12.4856 10.2542 12.7336C9.00713 12.9817 7.71456 12.8544 6.53989 12.3678C5.36522 11.8812 4.36122 11.0573 3.65484 10.0001C2.94846 8.94292 2.57143 7.70002 2.57143 6.42857L2.57786 6.14957C2.64975 4.49454 3.35778 2.93114 4.55429 1.78542C5.75079 0.639696 7.3434 9.57118e-05 9 0ZM11.5714 15.4286C13.2764 15.4286 14.9115 16.1059 16.1171 17.3115C17.3227 18.517 18 20.1522 18 21.8571V23.1429C18 23.8248 17.7291 24.4789 17.2468 24.9611C16.7646 25.4434 16.1106 25.7143 15.4286 25.7143H2.57143C1.88944 25.7143 1.23539 25.4434 0.753154 24.9611C0.270917 24.4789 0 23.8248 0 23.1429V21.8571C0 20.1522 0.677294 18.517 1.88288 17.3115C3.08848 16.1059 4.72361 15.4286 6.42857 15.4286H11.5714Z" fill="#5E4632"/>
</svg>
