<svg width="25" height="25" viewBox="0 0 25 25" fill="none" xmlns="http://www.w3.org/2000/svg">
<path d="M17.4538 14.4888C17.1476 14.3438 15.681 13.6185 15.4071 13.5057C15.1331 13.3929 14.9397 13.3607 14.7302 13.6669C14.5207 13.9731 13.9566 14.6339 13.7793 14.8434C13.6021 15.0529 13.4409 15.069 13.1347 14.8434C12.2552 14.4904 11.4429 13.9889 10.7334 13.3607C10.0911 12.7559 9.54732 12.0545 9.12178 11.2817C8.9445 10.9916 9.12178 10.8304 9.25071 10.6693C9.37964 10.5081 9.5408 10.3308 9.70196 10.1536C9.81982 10.0003 9.91733 9.83233 9.99205 9.65397C10.032 9.57102 10.0528 9.48013 10.0528 9.38805C10.0528 9.29597 10.032 9.20508 9.99205 9.12214C9.99205 8.97709 9.31518 7.51052 9.05732 6.91423C8.79946 6.31793 8.57383 6.39851 8.39656 6.39851H7.75191C7.44482 6.41048 7.15502 6.54379 6.9461 6.76918C6.60889 7.09098 6.34178 7.47896 6.16152 7.90881C5.98126 8.33866 5.89173 8.80111 5.89856 9.26718C5.98099 10.4114 6.40171 11.5053 7.10727 12.4098C8.40199 14.3332 10.1733 15.8879 12.2483 16.9223C12.9574 17.2286 13.5054 17.4058 13.9405 17.5509C14.5515 17.7356 15.1974 17.7742 15.8261 17.6637C16.2437 17.579 16.6394 17.4094 16.9887 17.1654C17.338 16.9215 17.6334 16.6083 17.8567 16.2455C18.0426 15.7973 18.1038 15.3073 18.034 14.8272C17.9534 14.7144 17.76 14.6339 17.4538 14.4888Z" fill="#C8A97E"/>
<path d="M20.4675 3.51373C19.3529 2.38863 18.0244 1.49812 16.5601 0.894717C15.0959 0.291312 13.5257 -0.0127684 11.9421 0.000410763C9.84421 0.011389 7.78595 0.572585 5.97287 1.62795C4.15978 2.68331 2.65532 4.19591 1.60974 6.01465C0.564164 7.8334 0.0140691 9.89465 0.0143976 11.9925C0.0147262 14.0904 0.565466 16.1515 1.61161 17.9699L0 24.1746L6.34976 22.563C8.10518 23.5182 10.0725 24.017 12.071 24.0134H11.9421C14.3239 24.029 16.6564 23.3347 18.6421 22.0193C20.6278 20.7039 22.1767 18.8268 23.0913 16.6276C24.006 14.4283 24.2449 12.0064 23.7776 9.67086C23.3102 7.33527 22.1579 5.19178 20.4675 3.51373ZM11.9421 21.9506C10.1541 21.952 8.3993 21.4674 6.86547 20.5485L6.51092 20.339L2.73974 21.3221L3.73894 17.6476L3.51332 17.2769C2.22621 15.2041 1.74475 12.7309 2.16028 10.3267C2.57582 7.92242 3.85943 5.75433 5.76759 4.23377C7.67574 2.71321 10.0757 1.94598 12.512 2.07765C14.9484 2.20931 17.2516 3.23072 18.9848 4.94806C19.914 5.86973 20.6504 6.9671 21.1512 8.17624C21.652 9.38537 21.9072 10.6821 21.9018 11.9908C21.8976 14.631 20.8469 17.1618 18.98 19.0287C17.1131 20.8956 14.5822 21.9463 11.9421 21.9506Z" fill="#C8A97E"/>
</svg>
