<svg width="209" height="39" viewBox="0 0 209 39" fill="none" xmlns="http://www.w3.org/2000/svg">
<path d="M202.961 21.008C204.839 21.008 206.311 21.5627 207.377 22.672C208.444 23.7813 208.977 25.5947 208.977 28.112H198.449L198.385 27.504H204.945C204.967 26.4587 204.903 25.4987 204.753 24.624C204.604 23.728 204.369 23.0133 204.049 22.48C203.729 21.9467 203.303 21.68 202.769 21.68C202.023 21.68 201.383 22.1493 200.849 23.088C200.337 24.0267 200.028 25.584 199.921 27.76L200.017 27.952C199.996 28.208 199.975 28.4747 199.953 28.752C199.953 29.0293 199.953 29.3173 199.953 29.616C199.953 31.088 200.156 32.2827 200.561 33.2C200.988 34.1173 201.521 34.7893 202.161 35.216C202.801 35.6213 203.452 35.824 204.113 35.824C204.561 35.824 205.02 35.76 205.489 35.632C205.98 35.4827 206.471 35.2267 206.961 34.864C207.452 34.48 207.911 33.9467 208.337 33.264L208.913 33.456C208.657 34.2667 208.252 35.056 207.697 35.824C207.143 36.592 206.439 37.2213 205.585 37.712C204.732 38.2027 203.708 38.448 202.513 38.448C201.063 38.448 199.783 38.1387 198.673 37.52C197.564 36.9013 196.689 35.9627 196.049 34.704C195.431 33.4453 195.121 31.8453 195.121 29.904C195.121 27.92 195.452 26.2667 196.113 24.944C196.796 23.6213 197.724 22.64 198.897 22C200.092 21.3387 201.447 21.008 202.961 21.008Z" fill="#5E4632"/>
<path d="M191.214 21.008C191.896 21.008 192.451 21.1573 192.878 21.456C193.304 21.7333 193.614 22.096 193.806 22.544C194.019 22.992 194.126 23.4613 194.126 23.952C194.126 24.7413 193.891 25.392 193.422 25.904C192.974 26.3947 192.376 26.64 191.63 26.64C190.883 26.64 190.296 26.4587 189.87 26.096C189.464 25.712 189.262 25.2107 189.262 24.592C189.262 23.9947 189.39 23.504 189.646 23.12C189.923 22.7147 190.264 22.3733 190.67 22.096C190.371 22.0107 190.072 22.0213 189.774 22.128C189.368 22.192 188.984 22.3627 188.622 22.64C188.259 22.896 187.95 23.2267 187.694 23.632C187.438 24.016 187.235 24.4427 187.086 24.912C186.936 25.36 186.862 25.7973 186.862 26.224V34.704C186.862 35.728 187.107 36.4213 187.598 36.784C188.11 37.1467 188.867 37.328 189.87 37.328V38C189.379 37.9787 188.664 37.9573 187.726 37.936C186.787 37.8933 185.806 37.872 184.782 37.872C183.928 37.872 183.064 37.8933 182.19 37.936C181.315 37.9573 180.654 37.9787 180.206 38V37.328C180.952 37.328 181.475 37.168 181.774 36.848C182.094 36.528 182.254 35.92 182.254 35.024V24.944C182.254 23.984 182.104 23.28 181.806 22.832C181.528 22.3627 180.995 22.128 180.206 22.128V21.456C180.888 21.52 181.55 21.552 182.19 21.552C183.086 21.552 183.918 21.52 184.686 21.456C185.475 21.3707 186.2 21.2533 186.862 21.104V24.08C187.118 23.504 187.459 22.9813 187.886 22.512C188.312 22.0427 188.803 21.68 189.358 21.424C189.912 21.1467 190.531 21.008 191.214 21.008Z" fill="#5E4632"/>
<path d="M170.368 21.008C171.925 21.008 173.29 21.296 174.464 21.872C175.637 22.448 176.554 23.376 177.216 24.656C177.877 25.936 178.208 27.632 178.208 29.744C178.208 31.856 177.877 33.552 177.216 34.832C176.554 36.0907 175.637 37.008 174.464 37.584C173.29 38.16 171.925 38.448 170.368 38.448C168.853 38.448 167.498 38.16 166.304 37.584C165.13 37.008 164.202 36.0907 163.52 34.832C162.858 33.552 162.528 31.856 162.528 29.744C162.528 27.632 162.858 25.936 163.52 24.656C164.202 23.376 165.13 22.448 166.304 21.872C167.498 21.296 168.853 21.008 170.368 21.008ZM170.368 21.648C169.514 21.648 168.8 22.288 168.224 23.568C167.648 24.8267 167.36 26.8853 167.36 29.744C167.36 32.6027 167.648 34.6613 168.224 35.92C168.8 37.1787 169.514 37.808 170.368 37.808C171.242 37.808 171.957 37.1787 172.512 35.92C173.088 34.6613 173.376 32.6027 173.376 29.744C173.376 26.8853 173.088 24.8267 172.512 23.568C171.957 22.288 171.242 21.648 170.368 21.648Z" fill="#5E4632"/>
<path d="M157.483 16.208V21.456H161.259V22.096H157.483V35.024C157.483 35.664 157.6 36.1227 157.835 36.4C158.069 36.656 158.421 36.784 158.891 36.784C159.275 36.784 159.659 36.6453 160.043 36.368C160.427 36.0693 160.768 35.568 161.067 34.864L161.611 35.152C161.269 36.112 160.747 36.9013 160.043 37.52C159.36 38.1387 158.421 38.448 157.227 38.448C156.523 38.448 155.904 38.352 155.371 38.16C154.837 37.9893 154.389 37.7227 154.027 37.36C153.557 36.8907 153.248 36.3147 153.099 35.632C152.949 34.928 152.875 34.0213 152.875 32.912V22.096H150.187V21.456H152.875V17.232C153.771 17.232 154.592 17.1573 155.339 17.008C156.107 16.8373 156.821 16.5707 157.483 16.208Z" fill="#5E4632"/>
<path d="M140.619 14.928C141.878 14.928 142.849 15.0667 143.531 15.344C144.214 15.6 144.801 15.8773 145.291 16.176C145.547 16.3253 145.75 16.4427 145.899 16.528C146.07 16.592 146.23 16.624 146.379 16.624C146.593 16.624 146.742 16.5067 146.827 16.272C146.934 16.0373 147.019 15.6853 147.083 15.216H147.819C147.798 15.6213 147.766 16.112 147.723 16.688C147.702 17.2427 147.681 17.9787 147.659 18.896C147.659 19.8133 147.659 21.0187 147.659 22.512H146.923C146.838 21.4027 146.582 20.3253 146.155 19.28C145.729 18.2347 145.121 17.3813 144.331 16.72C143.563 16.0373 142.614 15.696 141.483 15.696C140.459 15.696 139.617 15.984 138.955 16.56C138.294 17.136 137.963 17.936 137.963 18.96C137.963 19.8133 138.177 20.5493 138.603 21.168C139.03 21.7653 139.649 22.352 140.459 22.928C141.291 23.504 142.294 24.1973 143.467 25.008C144.491 25.6693 145.409 26.3307 146.219 26.992C147.03 27.6533 147.681 28.4 148.171 29.232C148.662 30.064 148.907 31.056 148.907 32.208C148.907 33.616 148.534 34.7787 147.787 35.696C147.062 36.6133 146.102 37.3067 144.907 37.776C143.713 38.224 142.401 38.448 140.971 38.448C139.649 38.448 138.593 38.32 137.803 38.064C137.014 37.808 136.353 37.5413 135.819 37.264C135.35 36.9653 134.987 36.816 134.731 36.816C134.518 36.816 134.358 36.9333 134.251 37.168C134.166 37.4027 134.091 37.7547 134.027 38.224H133.291C133.334 37.712 133.355 37.1147 133.355 36.432C133.377 35.7493 133.387 34.864 133.387 33.776C133.409 32.6667 133.419 31.2693 133.419 29.584H134.155C134.241 30.992 134.475 32.3147 134.859 33.552C135.265 34.768 135.873 35.7493 136.683 36.496C137.515 37.2427 138.614 37.616 139.979 37.616C140.726 37.616 141.387 37.488 141.963 37.232C142.561 36.9547 143.041 36.5493 143.403 36.016C143.766 35.4827 143.947 34.8213 143.947 34.032C143.947 33.136 143.734 32.3573 143.307 31.696C142.902 31.0347 142.337 30.416 141.611 29.84C140.907 29.264 140.086 28.6773 139.147 28.08C138.145 27.4187 137.206 26.7573 136.331 26.096C135.457 25.4347 134.753 24.6773 134.219 23.824C133.707 22.9707 133.451 21.9573 133.451 20.784C133.451 19.44 133.782 18.3413 134.443 17.488C135.126 16.6133 136.011 15.9733 137.099 15.568C138.209 15.1413 139.382 14.928 140.619 14.928Z" fill="#5E4632"/>
<path d="M116.961 21.008C118.839 21.008 120.311 21.5627 121.377 22.672C122.444 23.7813 122.977 25.5947 122.977 28.112H112.449L112.385 27.504H118.945C118.967 26.4587 118.903 25.4987 118.753 24.624C118.604 23.728 118.369 23.0133 118.049 22.48C117.729 21.9467 117.303 21.68 116.769 21.68C116.023 21.68 115.383 22.1493 114.849 23.088C114.337 24.0267 114.028 25.584 113.921 27.76L114.017 27.952C113.996 28.208 113.975 28.4747 113.953 28.752C113.953 29.0293 113.953 29.3173 113.953 29.616C113.953 31.088 114.156 32.2827 114.561 33.2C114.988 34.1173 115.521 34.7893 116.161 35.216C116.801 35.6213 117.452 35.824 118.113 35.824C118.561 35.824 119.02 35.76 119.489 35.632C119.98 35.4827 120.471 35.2267 120.961 34.864C121.452 34.48 121.911 33.9467 122.337 33.264L122.913 33.456C122.657 34.2667 122.252 35.056 121.697 35.824C121.143 36.592 120.439 37.2213 119.585 37.712C118.732 38.2027 117.708 38.448 116.513 38.448C115.063 38.448 113.783 38.1387 112.673 37.52C111.564 36.9013 110.689 35.9627 110.049 34.704C109.431 33.4453 109.121 31.8453 109.121 29.904C109.121 27.92 109.452 26.2667 110.113 24.944C110.796 23.6213 111.724 22.64 112.897 22C114.092 21.3387 115.447 21.008 116.961 21.008Z" fill="#5E4632"/>
<path d="M91.3528 21.008C92.2488 21.008 92.9741 21.1253 93.5288 21.36C94.0835 21.5733 94.5315 21.872 94.8728 22.256C95.2141 22.6613 95.4595 23.1947 95.6088 23.856C95.7581 24.496 95.8328 25.3493 95.8328 26.416V35.024C95.8328 35.92 95.9715 36.528 96.2488 36.848C96.5261 37.168 97.0061 37.328 97.6888 37.328V38C97.3048 37.9787 96.7181 37.9573 95.9288 37.936C95.1608 37.8933 94.4035 37.872 93.6568 37.872C92.8888 37.872 92.1315 37.8933 91.3848 37.936C90.6381 37.9573 90.0728 37.9787 89.6888 38V37.328C90.2648 37.328 90.6595 37.168 90.8728 36.848C91.1075 36.528 91.2248 35.92 91.2248 35.024V25.072C91.2248 24.5387 91.1821 24.08 91.0968 23.696C91.0115 23.2907 90.8408 22.9813 90.5848 22.768C90.3501 22.5333 89.9875 22.416 89.4968 22.416C88.9421 22.416 88.4301 22.576 87.9608 22.896C87.4915 23.216 87.1075 23.664 86.8088 24.24C86.5315 24.7947 86.3928 25.424 86.3928 26.128V35.024C86.3928 35.92 86.5101 36.528 86.7448 36.848C86.9795 37.168 87.3741 37.328 87.9288 37.328V38C87.5875 37.9787 87.0541 37.9573 86.3288 37.936C85.6248 37.8933 84.8995 37.872 84.1528 37.872C83.3421 37.872 82.5101 37.8933 81.6568 37.936C80.8035 37.9573 80.1635 37.9787 79.7368 38V37.328C80.4835 37.328 81.0061 37.168 81.3048 36.848C81.6248 36.528 81.7848 35.92 81.7848 35.024V24.944C81.7848 23.984 81.6355 23.28 81.3368 22.832C81.0595 22.3627 80.5261 22.128 79.7368 22.128V21.456C80.4195 21.52 81.0808 21.552 81.7208 21.552C82.6168 21.552 83.4488 21.52 84.2168 21.456C85.0061 21.3707 85.7315 21.2533 86.3928 21.104V23.984C86.9048 22.9173 87.5981 22.16 88.4728 21.712C89.3475 21.2427 90.3075 21.008 91.3528 21.008ZM100.985 21.008C101.881 21.008 102.606 21.1253 103.161 21.36C103.715 21.5733 104.163 21.872 104.505 22.256C104.846 22.6613 105.091 23.1947 105.241 23.856C105.39 24.496 105.465 25.3493 105.465 26.416V35.024C105.465 35.92 105.614 36.528 105.913 36.848C106.233 37.168 106.766 37.328 107.513 37.328V38C107.107 37.9787 106.499 37.9573 105.689 37.936C104.878 37.8933 104.078 37.872 103.289 37.872C102.521 37.872 101.763 37.8933 101.017 37.936C100.27 37.9573 99.7048 37.9787 99.3208 38V37.328C99.8968 37.328 100.291 37.168 100.505 36.848C100.739 36.528 100.857 35.92 100.857 35.024V25.072C100.857 24.5387 100.803 24.08 100.697 23.696C100.611 23.2907 100.43 22.9813 100.153 22.768C99.8968 22.5333 99.4915 22.416 98.9368 22.416C98.3822 22.416 97.8701 22.5867 97.4008 22.928C96.9315 23.2693 96.5475 23.728 96.2488 24.304C95.9715 24.88 95.8221 25.52 95.8008 26.224L95.6408 24.272C96.2168 22.992 96.9741 22.128 97.9128 21.68C98.8728 21.232 99.8968 21.008 100.985 21.008Z" fill="#5E4632"/>
<path d="M76.2665 21.104V34.512C76.2665 35.472 76.4158 36.1867 76.7145 36.656C77.0132 37.104 77.5465 37.328 78.3145 37.328V38C77.6532 37.936 76.9918 37.904 76.3305 37.904C75.4345 37.904 74.6025 37.936 73.8345 38C73.0665 38.064 72.3412 38.1813 71.6585 38.352V35.472C71.1465 36.5387 70.4318 37.3067 69.5145 37.776C68.6185 38.224 67.6158 38.448 66.5065 38.448C65.6105 38.448 64.8852 38.3307 64.3305 38.096C63.7758 37.8613 63.3385 37.5627 63.0185 37.2C62.6558 36.7947 62.3998 36.2613 62.2505 35.6C62.1012 34.9387 62.0265 34.0853 62.0265 33.04V24.944C62.0265 23.984 61.8772 23.28 61.5785 22.832C61.3012 22.3627 60.7678 22.128 59.9785 22.128V21.456C60.6612 21.52 61.3225 21.552 61.9625 21.552C62.8585 21.552 63.6905 21.52 64.4585 21.456C65.2478 21.3707 65.9732 21.2533 66.6345 21.104V34.352C66.6345 34.8853 66.6772 35.3547 66.7625 35.76C66.8692 36.1653 67.0612 36.4853 67.3385 36.72C67.6158 36.9333 68.0212 37.04 68.5545 37.04C69.1305 37.04 69.6425 36.88 70.0905 36.56C70.5598 36.24 70.9332 35.8027 71.2105 35.248C71.5092 34.672 71.6585 34.032 71.6585 33.328V24.944C71.6585 23.984 71.5092 23.28 71.2105 22.832C70.9332 22.3627 70.3998 22.128 69.6105 22.128V21.456C70.2932 21.52 70.9545 21.552 71.5945 21.552C72.4905 21.552 73.3225 21.52 74.0905 21.456C74.8798 21.3707 75.6052 21.2533 76.2665 21.104Z" fill="#5E4632"/>
<path d="M51.168 15.344V15.984C50.4427 16.0053 49.888 16.0907 49.504 16.24C49.1413 16.368 48.896 16.624 48.768 17.008C48.64 17.3707 48.576 17.9467 48.576 18.736V34.992C48.576 35.6533 48.6187 36.144 48.704 36.464C48.8107 36.784 49.0027 36.9973 49.28 37.104C49.5787 37.2107 50.016 37.264 50.592 37.264H52.16C52.8853 37.264 53.568 37.0933 54.208 36.752C54.848 36.4107 55.424 35.9307 55.936 35.312C56.448 34.672 56.8747 33.9147 57.216 33.04C57.5573 32.1653 57.8133 31.1947 57.984 30.128H58.72C58.656 30.8533 58.624 31.792 58.624 32.944C58.624 33.4347 58.6347 34.1493 58.656 35.088C58.6773 36.0267 58.7413 36.9973 58.848 38C57.76 37.9573 56.5333 37.936 55.168 37.936C53.8027 37.9147 52.5867 37.904 51.52 37.904C50.9867 37.904 50.304 37.904 49.472 37.904C48.64 37.904 47.744 37.9147 46.784 37.936C45.824 37.936 44.8533 37.9467 43.872 37.968C42.8907 37.968 41.9627 37.9787 41.088 38V37.36C41.7707 37.3173 42.2827 37.232 42.624 37.104C42.9653 36.976 43.1893 36.72 43.296 36.336C43.424 35.952 43.488 35.376 43.488 34.608V18.736C43.488 17.9467 43.424 17.3707 43.296 17.008C43.1893 16.624 42.9547 16.368 42.592 16.24C42.2507 16.0907 41.7493 16.0053 41.088 15.984V15.344C41.6213 15.3653 42.336 15.3867 43.232 15.408C44.1493 15.4293 45.12 15.44 46.144 15.44C47.0827 15.44 48 15.4293 48.896 15.408C49.8133 15.3867 50.5707 15.3653 51.168 15.344Z" fill="#5E4632"/>
<path d="M9.5 0C14.25 9.5 0 14.25 0 23.75C0 33.25 9.5 38 9.5 38C4.845 28.595 19 23.75 19 14.25C19 4.75 9.5 0 9.5 0ZM23.75 14.25C28.5 23.75 14.25 28.5 14.25 38H28.5C30.4 38 33.25 35.625 33.25 28.5C33.25 19 23.75 14.25 23.75 14.25Z" fill="url(#paint0_linear_20_129)"/>
<defs>
<linearGradient id="paint0_linear_20_129" x1="9" y1="6" x2="30.5" y2="44.5" gradientUnits="userSpaceOnUse">
<stop stop-color="#C8A97E"/>
<stop offset="1" stop-color="#5E4632"/>
</linearGradient>
</defs>
</svg>
